<svg width="50" height="35" fill="none" xmlns="http://www.w3.org/2000/svg"><path d="M0 26.415V.773h7.938l5.866 14.401h.668L20.267.773h8.08v25.642h-5.69V4.53l.807.07-6.78 16.615h-5.479L4.391 4.6l.878-.07v21.883H0ZM31.814 34.037V29.26h4.004c.609 0 1.124-.082 1.545-.246.422-.14.761-.386 1.019-.738.258-.351.468-.831.632-1.44l4.742-19.67h5.34L43.72 27.96c-.375 1.499-.901 2.693-1.58 3.583-.656.89-1.546 1.522-2.67 1.897-1.1.398-2.506.597-4.215.597h-3.442Zm6.041-8.044v-4.39h4.075v4.39h-4.075Zm-2.318 0L29.636 7.166h5.655l5.585 18.827h-5.34Z" fill="#222"/></svg>