<svg width="153" height="28" fill="none" xmlns="http://www.w3.org/2000/svg"><path d="M13.384 27.082c-2.319 0-4.309-.398-5.972-1.194-1.662-.82-3.02-1.885-4.074-3.197C2.284 21.356 1.5 19.928.984 18.406.493 16.86.247 15.362.247 13.91v-.773c0-1.592.257-3.161.773-4.707a12.833 12.833 0 0 1 2.353-4.25c1.077-1.265 2.424-2.271 4.04-3.02C9.051.385 10.982 0 13.207 0c2.319 0 4.368.433 6.147 1.3 1.78.866 3.197 2.072 4.25 3.618 1.078 1.522 1.71 3.313 1.897 5.374h-5.796c-.163-1.03-.538-1.909-1.124-2.635-.585-.726-1.346-1.288-2.283-1.686-.913-.398-1.943-.597-3.09-.597-1.148 0-2.167.2-3.057.597a6.19 6.19 0 0 0-2.248 1.686c-.585.726-1.042 1.593-1.37 2.6-.304.983-.456 2.084-.456 3.302 0 1.194.152 2.294.456 3.301a8.18 8.18 0 0 0 1.405 2.6 6.444 6.444 0 0 0 2.319 1.686c.913.374 1.955.562 3.126.562 1.78 0 3.278-.433 4.496-1.3 1.241-.866 1.99-2.06 2.248-3.583h5.76a11.423 11.423 0 0 1-1.896 5.164c-1.03 1.545-2.447 2.786-4.25 3.723-1.78.913-3.9 1.37-6.358 1.37ZM37.017 27.082c-1.687 0-3.185-.258-4.497-.773-1.31-.538-2.423-1.264-3.337-2.178a9.495 9.495 0 0 1-2.037-3.126 10.204 10.204 0 0 1-.702-3.758v-.808c0-1.335.234-2.6.702-3.794a9.504 9.504 0 0 1 2.108-3.196c.936-.913 2.06-1.628 3.372-2.143 1.311-.538 2.775-.808 4.39-.808 1.663 0 3.139.27 4.426.808 1.312.515 2.424 1.23 3.337 2.143a9.504 9.504 0 0 1 2.108 3.196 9.866 9.866 0 0 1 .737 3.794v.808c0 1.311-.234 2.564-.702 3.758a9.234 9.234 0 0 1-2.072 3.126c-.89.914-1.99 1.64-3.302 2.178-1.312.515-2.822.773-4.531.773Zm0-4.742c1.1 0 2.013-.234 2.74-.703.725-.468 1.276-1.124 1.65-1.967.398-.843.597-1.78.597-2.81 0-1.1-.199-2.06-.597-2.88a4.783 4.783 0 0 0-1.72-2.002c-.727-.492-1.617-.738-2.67-.738-1.03 0-1.92.246-2.67.738a4.783 4.783 0 0 0-1.721 2.002c-.375.82-.562 1.78-.562 2.88 0 1.03.187 1.967.562 2.81.375.843.937 1.5 1.686 1.967.75.469 1.65.703 2.705.703ZM49.79 26.415V7.165h4.462v8.255h-.317c0-1.967.246-3.606.738-4.917.515-1.312 1.288-2.295 2.318-2.951 1.03-.656 2.284-.983 3.759-.983h.246c2.248 0 3.957.737 5.128 2.212 1.194 1.452 1.791 3.665 1.791 6.64v10.994h-5.62v-11.31c0-1.031-.304-1.874-.913-2.53-.609-.656-1.428-.983-2.459-.983-1.054 0-1.908.339-2.564 1.018-.632.656-.948 1.522-.948 2.6v11.204h-5.62ZM79.695 26.66c-1.944 0-3.513-.234-4.707-.702-1.195-.492-2.073-1.3-2.635-2.424-.538-1.147-.808-2.693-.808-4.636V1.967h5.234v17.141c0 .914.234 1.616.703 2.108.491.468 1.182.702 2.072.702H82.4v4.742h-2.704ZM68.63 11.275v-4.11H82.4v4.11H68.63ZM95.98 26.415v-5.69h-.948v-6.183c0-.983-.234-1.721-.703-2.213-.468-.492-1.217-.738-2.248-.738a105 105 0 0 0-4.637.14c-.89.048-1.697.095-2.423.142V7.13c.539-.047 1.17-.094 1.897-.141a72.112 72.112 0 0 1 4.426-.14c1.967 0 3.618.28 4.952.843 1.359.562 2.389 1.416 3.091 2.564.703 1.124 1.054 2.576 1.054 4.355v11.803h-4.46Zm-6.147.491c-1.381 0-2.599-.246-3.653-.737-1.03-.492-1.838-1.195-2.424-2.108-.585-.937-.878-2.049-.878-3.337 0-1.405.363-2.552 1.09-3.442.725-.913 1.744-1.58 3.055-2.002 1.312-.445 2.822-.668 4.531-.668h4.11v3.126H91.52c-.983 0-1.744.246-2.283.738-.515.469-.773 1.112-.773 1.932 0 .773.258 1.405.773 1.897.539.468 1.3.702 2.283.702.633 0 1.195-.105 1.686-.316.516-.234.937-.62 1.265-1.159.328-.538.515-1.288.562-2.248l1.335 1.405c-.117 1.335-.445 2.459-.984 3.372a5.248 5.248 0 0 1-2.178 2.108c-.913.491-2.037.737-3.372.737ZM112.094 27.082c-1.662 0-3.114-.27-4.355-.808-1.218-.562-2.237-1.311-3.056-2.248a9.3 9.3 0 0 1-1.827-3.161 11.59 11.59 0 0 1-.597-3.688v-.668c0-1.311.211-2.564.632-3.758a9.648 9.648 0 0 1 1.862-3.232c.82-.937 1.838-1.674 3.056-2.213 1.241-.538 2.658-.808 4.25-.808 1.733 0 3.267.34 4.602 1.019 1.334.656 2.4 1.58 3.196 2.775.796 1.194 1.241 2.564 1.335 4.11h-5.515c-.094-.867-.445-1.593-1.054-2.178-.585-.61-1.44-.914-2.564-.914-.937 0-1.721.235-2.353.703-.609.468-1.066 1.112-1.37 1.932-.305.82-.457 1.791-.457 2.915 0 1.03.141 1.967.422 2.81.281.82.726 1.464 1.334 1.932.633.445 1.452.668 2.459.668.75 0 1.382-.13 1.897-.387.539-.28.96-.655 1.264-1.124a3.742 3.742 0 0 0 .598-1.686h5.479c-.07 1.593-.515 2.998-1.335 4.215-.819 1.195-1.908 2.131-3.266 2.81-1.358.656-2.904.984-4.637.984ZM131.917 26.66c-1.944 0-3.513-.234-4.707-.702-1.195-.492-2.073-1.3-2.635-2.424-.538-1.147-.808-2.693-.808-4.636V1.967h5.234v17.141c0 .914.234 1.616.703 2.108.491.468 1.182.702 2.072.702h2.845v4.742h-2.704Zm-11.065-15.385v-4.11h13.769v4.11h-13.769ZM143.813 27.012c-2.74 0-4.882-.562-6.428-1.686-1.545-1.124-2.365-2.705-2.459-4.742h4.988c.094.608.457 1.159 1.089 1.65.656.469 1.628.703 2.916.703.983 0 1.791-.164 2.423-.492.656-.35.984-.843.984-1.475 0-.562-.246-1.007-.738-1.335-.492-.351-1.37-.597-2.634-.737l-1.511-.14c-2.318-.235-4.063-.879-5.233-1.933-1.148-1.054-1.722-2.4-1.722-4.04 0-1.357.34-2.493 1.019-3.406.679-.914 1.616-1.605 2.81-2.073 1.218-.468 2.599-.702 4.145-.702 2.482 0 4.484.55 6.006 1.65 1.523 1.078 2.319 2.647 2.389 4.707h-4.988c-.093-.632-.421-1.159-.983-1.58-.562-.445-1.394-.668-2.494-.668-.867 0-1.558.164-2.073.492-.515.328-.772.773-.772 1.335 0 .539.222.948.667 1.23.445.28 1.171.48 2.178.596l1.51.14c2.365.258 4.204.914 5.515 1.968 1.311 1.054 1.967 2.47 1.967 4.25 0 1.288-.351 2.412-1.054 3.372-.702.937-1.698 1.663-2.986 2.178-1.287.492-2.798.738-4.531.738Z" fill="#5061FC"/></svg>